<svg xmlns="http://www.w3.org/2000/svg" fill="none" viewBox="0 0 76 76">
  <path d="m36.089 0.013895c-2.032 0.097754-4.325 0.40878-6.2847 0.85244-0.2654 0.060085-0.5827 0.13143-0.7052 0.15857-0.6177 0.13677-1.602 0.40432-2.2828 0.62052-1.21 0.38428-2.6797 0.91039-3.237 1.1587-0.174 0.07757-0.8633 0.37094-0.9816 0.41782-0.5418 0.21465-2.6598 1.2786-3.2507 1.633-0.284 0.17033-0.7622 0.44851-0.8729 0.50783-0.2954 0.15827-1.971 1.2449-2.3081 1.4969-0.1556 0.11633-0.8392 0.61254-0.9212 0.66868-0.3109 0.21298-1.7296 1.3606-2.1714 1.7565-0.2423 0.21713-0.2824 0.25274-0.6369 0.565-0.6085 0.53586-2.038 1.9653-2.5718 2.5716-0.12406 0.1409-0.31249 0.3522-0.41873 0.4696-0.38198 0.422-0.90632 1.0553-1.475 1.7814-0.32641 0.4167-0.3585 0.4595-0.70903 0.9455-0.1432 0.1986-0.30908 0.4265-0.3686 0.5064-0.27385 0.3678-1.3504 2.0251-1.5219 2.3428-0.05813 0.1078-0.15169 0.2689-0.47398 0.8165-0.42938 0.7296-1.4372 2.7304-1.6636 3.303-0.02019 0.0511-0.14573 0.3475-0.27896 0.6588-0.44983 1.0508-0.79757 2.0029-1.2776 3.4978-0.21597 0.6726-0.5043 1.7312-0.63941 2.3474-0.0168 0.0766-0.084165 0.3765-0.14973 0.6666-0.39835 1.7625-0.67278 3.6232-0.80479 5.457-0.075349 1.0467-0.083627 1.321-0.083627 2.7741 0 1.4539 0.0083515 1.7302 0.083756 2.7742 0.13459 1.8636 0.42687 3.8112 0.84374 5.6225 0.066942 0.2909 0.129 0.5706 0.13791 0.6217 0.04362 0.25 0.4219 1.6342 0.57353 2.0986 0.02968 0.0909 0.10174 0.3155 0.16014 0.4993 0.05839 0.1837 0.15414 0.4717 0.21276 0.6401 0.05861 0.1684 0.14033 0.4106 0.1816 0.5382 0.1574 0.4866 0.68206 1.7849 1.1698 2.8948 0.17139 0.3899 0.8969 1.8519 1.1683 2.3542 0.20411 0.3778 0.23459 0.4313 0.5927 1.0415 0.12279 0.2093 0.2382 0.4097 0.25648 0.4454 0.05535 0.1081 0.57615 0.9342 0.80717 1.2804 0.11922 0.1786 0.30637 0.4598 0.41589 0.625 0.10951 0.1652 0.24171 0.3572 0.29377 0.4268 0.15081 0.2016 0.57454 0.7864 0.63748 0.8798 0.21756 0.323 1.5408 1.9462 1.9213 2.3569 0.09087 0.098 0.1836 0.2024 0.2061 0.2319 0.34953 0.4588 2.465 2.571 3.0401 3.0354 0.0561 0.0454 0.1466 0.1259 0.201 0.179 0.4008 0.3908 1.8824 1.5797 2.6865 2.1557 0.1497 0.1071 0.3735 0.27 0.4974 0.3618 0.1239 0.0919 0.3505 0.2498 0.5034 0.351 0.153 0.1012 0.3992 0.265 0.5473 0.3639 0.3374 0.2255 1.2485 0.7989 1.357 0.8542 0.0447 0.0227 0.2942 0.1664 0.5545 0.3193 1.0178 0.5978 2.8539 1.5303 3.6283 1.8427 0.0817 0.0329 0.328 0.1367 0.5475 0.2306 0.6982 0.2988 1.6627 0.6781 2.0043 0.7882 0.0868 0.0279 0.3499 0.1157 0.5847 0.195 1.1892 0.4016 2.6248 0.8171 3.257 0.9426 0.0562 0.0112 0.3443 0.0753 0.6403 0.1425 4.3028 0.9775 8.8809 1.1785 13.332 0.5853 1.0105-0.1347 2.1805-0.3429 3.1297-0.557 0.2654-0.0599 0.5661-0.1267 0.6681-0.1484 0.5229-0.1115 1.8396-0.4664 2.2951-0.6184 0.0749-0.025 0.2865-0.0932 0.4702-0.1515s0.4719-0.1539 0.6403-0.2125 0.4106-0.1403 0.5382-0.1814c0.3938-0.127 1.2461-0.4621 2.0396-0.8018 0.2876-0.1231 0.5274-0.2238 0.533-0.2238 0.0708 0 2.1477-1.0186 2.7817-1.3642 0.9197-0.5014 1.9326-1.1136 2.8606-1.7292 0.1109-0.0735 0.3013-0.1988 0.4231-0.2783 0.1219-0.0796 0.289-0.1948 0.3714-0.256 0.1329-0.0988 0.6724-0.4894 0.9882-0.7156 0.4732-0.3388 1.9235-1.5204 2.2881-1.8643 0.087-0.0819 0.1998-0.1821 0.2509-0.2225 0.5427-0.4299 2.574-2.4608 3.0341-3.0336 0.0451-0.0561 0.1169-0.1363 0.1594-0.1783 0.2529-0.2493 1.6399-1.9468 1.9356-2.3687 0.0446-0.0637 0.1991-0.277 0.3433-0.4741 0.3893-0.532 0.5088-0.7005 0.6482-0.9143 0.1704-0.2611 0.3344-0.5093 0.4639-0.7017 0.059-0.0878 0.1963-0.3016 0.3049-0.4751 0.1087-0.1735 0.2329-0.3703 0.2761-0.4372 0.0431-0.067 0.1077-0.1759 0.1434-0.242s0.163-0.2869 0.2829-0.4906c0.4647-0.7893 1.055-1.912 1.5314-2.9126 0.3993-0.8386 1.1523-2.6652 1.3559-3.289 0.0425-0.1302 0.121-0.3619 0.1746-0.515 0.3433-0.9819 0.8762-2.7928 0.9556-3.2474 9e-3 -0.051 0.0795-0.3683 0.1568-0.7051 0.4549-1.9819 0.7272-3.8821 0.8762-6.1143 0.0421-0.6305 0.0489-3.7403 0.0095-4.3514-0.1011-1.5691-0.2194-2.6454-0.4414-4.0175-0.1322-0.8175-0.2803-1.5513-0.5652-2.8019-0.2334-1.0242-0.5207-2.0174-0.9556-3.3031-0.0846-0.25-0.1722-0.513-0.1948-0.5845-0.1293-0.4096-0.6897-1.7995-1.1261-2.7927-0.3199-0.7281-1.1077-2.2921-1.4747-2.9276-0.0546-0.0946-0.2079-0.3603-0.3406-0.5906-0.2946-0.5112-0.787-1.3064-1.0826-1.7483-0.1207-0.1805-0.309-0.4618-0.4184-0.6251-0.1671-0.2493-0.6673-0.948-0.9832-1.3732-0.4568-0.6149-1.5541-1.952-1.8648-2.2724-0.0647-0.0667-0.1397-0.1506-0.1666-0.1863-0.3416-0.453-2.6598-2.7738-3.0057-3.0092-0.0231-0.01574-0.1089-0.09245-0.1906-0.17042-0.1621-0.15471-0.6763-0.59865-0.9272-0.80048-0.0868-0.06979-0.2413-0.1954-0.3434-0.27912-0.2068-0.16966-0.8485-0.67248-1.0207-0.79987-0.0613-0.04532-0.2325-0.16985-0.3805-0.27673-0.148-0.10689-0.386-0.28044-0.5289-0.38566-0.2422-0.17832-0.435-0.30976-0.9301-0.63397-0.1091-0.07144-0.2953-0.19445-0.4136-0.27335-0.3134-0.20885-0.9761-0.61577-1.403-0.86146-0.2042-0.11748-0.4589-0.26589-0.5661-0.32982-0.4855-0.28959-2.2822-1.2059-2.8859-1.4719-1.1437-0.50389-2.4464-1.0316-2.9323-1.1879-0.1123-0.03611-0.367-0.12199-0.566-0.19085-0.8826-0.30532-2.1073-0.67261-2.8024-0.84039-2.6775-0.64632-4.526-0.93845-7.0803-1.1189-0.4861-0.034348-3.7064-0.052588-4.2939-0.024327zm2.5494 12.812c2.1845 0.1614 4.3777 1.6372 5.3507 3.6004 0.2153 0.4344 0.449 0.9791 0.4489 1.0464 0 0.0062-0.2484 0.012-0.5521 0.0128-0.5136 0.0014-0.7628 0.018-1.1152 0.0744-0.0696 0.0111-0.0712 0.01-0.1016-0.0694-0.017-0.0444-0.0887-0.1866-0.1593-0.316-1.3723-2.5159-4.329-3.4177-6.9244-2.1119-0.8452 0.4252-1.7626 1.3975-2.2032 2.3351-0.0814 0.1731-0.0817 0.1735-0.1409 0.1626-0.2788-0.0516-0.6028-0.0734-1.1124-0.0748-0.3037-8e-4 -0.5522-0.0062-0.5522-0.012-2e-4 -0.159 0.5013-1.2155 0.7539-1.588 1.4811-2.185 3.684-3.2535 6.3078-3.0596zm-5.7255 5.9456c0.5472 0.074 1.0574 0.2029 1.5497 0.3914 0.1123 0.043 0.2418 0.0909 0.2877 0.1065 0.0941 0.0319 0.5368 0.2504 0.6107 0.3014 0.0265 0.0183 0.1567 0.1006 0.2894 0.1829 0.4873 0.3024 1.0156 0.7377 1.3757 1.1337 0.2296 0.2525 0.2243 0.1939 0.0426 0.48-0.1804 0.284-0.44 0.8011-0.576 1.1472-0.0805 0.205-0.1028 0.2465-0.1181 0.22-0.5303-0.9147-1.7508-1.8256-2.8804-2.1499-4.4097-1.2658-8.1651 3.5856-5.7947 7.4856 0.0528 0.0868 0.1243 0.2069 0.1589 0.2669 0.2919 0.5059 1.2172 1.35 1.7625 1.6078 0.0703 0.0332 0.1997 0.0959 0.2876 0.1393 0.9761 0.4822 2.225 0.6144 3.3292 0.3526 0.4841-0.1148 0.7401-0.2143 1.3734-0.5338 0.55-0.2775 1.4643-1.1478 1.7501-1.6658 0.031-0.0561 0.1227-0.2208 0.2038-0.366 0.3957-0.7081 0.5783-1.4247 0.6067-2.3803 0.0848-2.8555 1.7704-5.3723 4.1948-6.2636 1.7885-0.6575 3.3237-0.6809 4.9217-0.0751 0.1205 0.0457 0.2609 0.0971 0.312 0.1142 0.2515 0.0845 0.9009 0.4589 1.2964 0.7476 2.3666 1.7271 3.3482 4.6892 2.4814 7.4879-0.0312 0.1008-0.0568 0.1949-0.0568 0.2092 0 0.0441-0.223 0.5589-0.3528 0.8146-0.1641 0.3232-0.4007 0.69-0.7834 1.2144-0.2377 0.3258-1.1223 1.131-1.4713 1.3392-0.0612 0.0365-0.222 0.1342-0.3573 0.2171-1.0904 0.6683-2.4105 0.9963-3.7382 0.9292-0.2819-0.0143-0.3981-0.0265-0.8876-0.0935-0.6518-0.0892-1.563-0.4314-2.2178-0.8329-0.1122-0.0689-0.273-0.1677-0.3572-0.2196-0.3212-0.198-0.507-0.3553-1.03-0.872-0.3861-0.3814-0.3653-0.3101-0.18-0.618 0.254-0.4219 0.6486-1.2505 0.6486-1.3618 0-0.0532 0.0285-0.0258 0.1234 0.1183 1.1147 1.6921 3.3181 2.5599 5.3329 2.1002 1.0466-0.2387 1.9044-0.743 2.6792-1.5751 0.1755-0.1885 0.4201-0.4973 0.4201-0.5304 0-0.0061 0.0404-0.0758 0.0898-0.1548 2.5399-4.0632-1.4088-9.0455-5.9637-7.5246-2.0548 0.6861-3.3627 2.5422-3.4423 4.8852-0.073 2.1519-0.9599 3.9605-2.5703 5.2417-0.6267 0.4986-1.5926 0.9935-2.3497 1.2039-0.3468 0.0963-0.52 0.1289-1.0524 0.1981-0.4367 0.0566-1.1672 0.0531-1.6186-0.0078-0.1071-0.0145-0.27-0.0366-0.3619-0.0491-0.6886-0.094-1.5777-0.4338-2.2916-0.8759-0.1482-0.0918-0.2987-0.1835-0.3344-0.2037-0.2049-0.116-0.5338-0.3975-0.99-0.8475-1.471-1.4508-2.1865-3.6243-1.8761-5.6989 0.4737-3.1662 3.019-5.5182 6.2531-5.7781 0.2341-0.0188 1.0112 0.0069 1.2712 0.0421zm-0.3489 2.8875c0.3128 0.0413 0.7387 0.1526 0.8867 0.2319 0.0186 0.0099 0.0693 0.0829 0.1127 0.1622 0.1273 0.2326 0.3435 0.5354 0.5733 0.8029 0.057 0.0663 0.1355 0.1604 0.1744 0.209 0.0803 0.1001 0.3972 0.3846 0.5505 0.4941 0.3237 0.2312 0.5671 0.3924 0.7211 0.4775 0.1741 0.0962 0.1746 0.0966 0.2911 0.2822l0.1167 0.1859-0.0169 0.1267c-0.0092 0.0696-0.0251 0.3589-0.0353 0.6427-0.0331 0.925-0.175 1.5555-0.3724 1.6555-0.6969 0.3531-1.4684 1.1038-1.9492 1.8967l-0.1377 0.227-0.1578 0.0577c-0.4622 0.1691-1.0636 0.2506-1.5109 0.2048-0.2461-0.0252-0.231-0.0087-0.1687-0.1827 0.3849-1.0742 1.1386-2.1586 2.0044-2.8838 0.2072-0.1735 0.6891-0.5334 0.7517-0.5613 0.3616-0.1613 0.3719-0.1912 0.1197-0.3446-1.0336-0.6285-1.9471-1.5998-2.4836-2.6408-0.2328-0.4519-0.4588-1.0033-0.4247-1.0366 0.0399-0.0389 0.6773-0.0437 0.9549-7e-3zm11.838 0.0029c0.0343 0.0344-0.1691 0.5328-0.4173 1.0225-0.5271 1.04-1.5076 2.0803-2.5196 2.6731-0.2362 0.1385-0.2427 0.1222 0.1276 0.3219 0.1962 0.1057 0.7083 0.5061 1.0514 0.8219 0.3602 0.3316 0.8472 0.9282 1.1519 1.4111 0.1625 0.2576 0.6495 1.3443 0.617 1.3768-0.1119 0.112-1.1716 0.0129-1.6682-0.1559l-0.2067-0.0702-0.1472-0.2413c-0.5059-0.8293-1.1824-1.4799-1.9964-1.9199-0.2031-0.1098-0.3845-0.3684-0.3647-0.5201 0.025-0.1934 0.0464-0.5452 0.0468-0.7702 9e-4 -0.6575 0.1841-1.5059 0.3389-1.5699 0.0581-0.024 0.5285-0.336 0.772-0.512 0.363-0.2624 0.9127-0.898 1.2197-1.4104l0.1312-0.2189 0.1565-0.0594c0.4487-0.17 1.5957-0.2904 1.7071-0.1791zm-11.034 11.867c0.9025 2.1551 3.3436 3.3315 5.8628 2.8253 1.3391-0.2691 2.8042-1.4762 3.3999-2.8013l0.0725-0.1612 0.1021 0.0116c0.4633 0.0526 0.6939 0.0661 1.1367 0.0664 0.2731 2e-4 0.4965 0.0031 0.4965 0.0064 0 0.4042-0.8025 1.7607-1.508 2.549-0.2181 0.2437-0.2603 0.2841-0.5428 0.5194-2.971 2.4739-7.2596 2.0733-9.6349-0.9-0.079-0.0988-0.1744-0.2176-0.2121-0.264-0.2098-0.2581-0.5666-0.8895-0.7598-1.3444-0.0821-0.1936-0.2038-0.5196-0.2038-0.5461 0-0.0085 0.2819-0.0203 0.6264-0.0264 0.3853-0.0067 0.6906-0.0208 0.7934-0.0367 0.0918-0.0142 0.2004-0.0269 0.2412-0.0283l0.0743-0.0026 0.0556 0.1329zm27.916 12.996c1.5624 0.3953 1.8635 2.4674 0.4791 3.2977-1.016 0.6094-2.349 0.0432-2.6563-1.1282-0.3351-1.2777 0.8873-2.4958 2.1772-2.1695zm-0.7591 0.1834c-1.7649 0.4047-1.6212 2.9582 0.1771 3.1466 0.4866 0.051 1.1228-0.195 1.3497-0.5219 0.0237-0.0341 0.0667-0.0896 0.0956-0.1233 0.2611-0.3047 0.3678-0.8968 0.2465-1.3676-0.2024-0.7856-1.0761-1.3156-1.8689-1.1338zm0.7242 0.6316c0.4108 0.2276 0.4188 0.8124 0.0136 0.997-0.0659 0.03-0.0702 0.0177 0.1664 0.4738 0.1173 0.2264 0.2134 0.4163 0.2134 0.422s-0.0659 0.0104-0.1464 0.0104h-0.1464l-0.1552-0.3006c-0.0853-0.1654-0.1766-0.3512-0.2029-0.4129l-0.0477-0.1122-0.3964-0.0106v0.8363h-0.2784v-1.9694l0.4408 0.0059 0.4408 0.0058 0.0984 0.0545zm-0.7016 0.5115v0.2969h0.2569c0.3654 0 0.4855-0.0734 0.4854-0.2966 0-0.2325-0.1016-0.2972-0.4667-0.2972h-0.2756v0.2969zm-6.1708 0.2057c0.8892 0.0865 2.0506 0.5458 2.3848 0.943 0.0051 0.0061 0.0958 0.09 0.2015 0.1866 2.8066 2.5628 1.2449 7.6304-2.4965 8.1009-4.1145 0.5175-6.7891-4.104-4.3387-7.4971 0.059-0.0816 0.1322-0.186 0.1628-0.2319 0.1647-0.2479 0.794-0.769 1.2065-0.9994 0.7426-0.4148 1.8295-0.6043 2.8796-0.5021zm-35.457 1.7999c0 1.04 0.0067 1.7063 0.0172 1.7025 0.0175-0.0063 2.0584-1.9122 2.4419-2.2803 0.0714-0.0686 0.2635-0.2483 0.4268-0.3993s0.4021-0.3774 0.5306-0.5031l0.2335-0.2285h1.2125v0.4956l-0.3016 0.2885c-0.1659 0.1587-0.3517 0.3302-0.413 0.3812-0.0612 0.051-0.2992 0.2744-0.5289 0.4964s-0.476 0.4535-0.5475 0.5143c-0.0714 0.0609-0.3053 0.2796-0.5196 0.4861-0.2144 0.2065-0.4691 0.4457-0.566 0.5314s-0.3015 0.2772-0.4547 0.4256c-0.1531 0.1483-0.387 0.3715-0.5197 0.496l-0.2413 0.2263 0.2227 0.2084c0.1225 0.1147 0.3488 0.3299 0.5029 0.4782 0.1541 0.1484 0.367 0.3485 0.4732 0.4446 0.1062 0.0962 0.3476 0.325 0.5365 0.5086 0.1888 0.1836 0.3934 0.3751 0.4547 0.4254 0.0612 0.0504 0.2992 0.273 0.5289 0.4948 0.2297 0.2219 0.5053 0.4814 0.6124 0.5767 0.1072 0.0954 0.3786 0.3507 0.6032 0.5673s0.4396 0.4206 0.4779 0.4534l0.0696 0.0595v0.4786h-1.2391l-1.176-1.0978c-0.6469-0.6037-1.2884-1.2029-1.4258-1.3314-0.1373-0.1285-0.3837-0.3588-0.5475-0.5118-0.1637-0.153-0.4135-0.3889-0.5551-0.5242-0.1415-0.1354-0.2689-0.2461-0.283-0.2461-0.0217 0-0.0257 0.2859-0.0257 1.8464v1.8463h-1.2806v-9.0183h1.2806v1.7087zm7.4341-1.6945c0.0272 0.0188 0.3238 0.384 0.4857 0.5981 0.0732 0.097 0.1834 0.2348 0.2448 0.3062 0.1039 0.1211 0.6245 0.7577 0.8682 1.0619 0.3672 0.4582 1.7666 2.171 1.8616 2.2785 0.063 0.0713 0.1374 0.1635 0.1654 0.2048 0.0631 0.0934 0.6099 0.767 0.7148 0.8805 0.0424 0.0459 0.1459 0.1712 0.2298 0.2783 0.3745 0.4777 0.6048 0.7608 0.6189 0.7608 0.0085 0 0.0153-1.4362 0.0153-3.1916v-3.1917h1.2621v9.0369h-0.359c-0.3539 0-0.3592-6e-4 -0.3789-0.0418-0.011-0.0229-0.0834-0.1169-0.1609-0.2087-0.0775-0.0919-0.3087-0.3716-0.5137-0.6217-1.07-1.3046-1.4212-1.7344-1.4549-1.7798-0.0743-0.1003-0.7497-0.9224-0.8246-1.0036-0.0423-0.0459-0.1471-0.1754-0.2328-0.2876-0.0856-0.1123-0.2567-0.3252-0.3801-0.4732s-0.3349-0.4048-0.4699-0.5707-0.3331-0.4093-0.4403-0.541c-0.4327-0.5315-0.6904-0.8367-0.7067-0.8367-0.0104 0-0.0171 1.2469-0.0171 3.1824v3.1824h-1.2435v-9.0369l0.348 3e-4c0.1914 1e-4 0.3569 0.0064 0.3678 0.0139zm10.178 4.5042v4.5185h-1.2248v-9.0369h1.2248v4.5184zm12.861-3.9061v0.5938h-3.0437v7.8308h-1.262v-7.8308h-2.8581v7.8308h-1.262v-7.8308h-3.0436v-1.1876h11.469v0.5938zm3.7948 0.51c-3.5904 0.5444-3.5977 6.1874-0.0088 6.793 2.8256 0.4769 4.7779-2.23 3.6077-5.002-0.5562-1.3174-1.9961-2.034-3.5989-1.791zm-4.366 11.358c0.1764 0.029 0.4864 0.1221 0.5418 0.1626 0.0335 0.0244 0.0321 0.033-0.0375 0.2334-0.0826 0.2376-0.0501 0.224-0.3132 0.1321-1.1318-0.3953-1.8493 0.5127-0.7399 0.9364 0.8937 0.3414 1.0945 0.5011 1.1879 0.9446 0.1942 0.9223-1.0087 1.5332-2.1372 1.0854l-0.1114-0.0442-0.0104-0.4962 0.0423 0.0099c0.0233 0.0055 0.1037 0.0316 0.1788 0.058 0.8246 0.2907 1.5173 0.126 1.5404-0.3661 0.015-0.3206-0.1088-0.438-0.7054-0.6685-0.6431-0.2486-0.9101-0.4812-0.9912-0.8635-0.1696-0.8002 0.5152-1.2951 1.555-1.1239zm-19.324 0.2031v0.2319h-1.2434v3.1732h-0.4824l-0.0047-1.582-0.0048-1.5819-1.2341-0.0098v-0.4634h2.9694v0.232zm3.0993-2e-4v0.2318l-2.1064 0.0096-0.0098 1.0856h2.0049v0.4824h-2.0044v1.1134h2.1714v0.4825h-2.6539v-3.6371h2.5982v0.2318zm1.1665-0.0411c0.075 0.1044 0.2064 0.2858 0.2921 0.4031 0.0856 0.1174 0.1802 0.2552 0.2101 0.3062 0.1006 0.1718 0.3098 0.4454 0.3406 0.4454 0.0274 0 0.2129-0.2525 0.8283-1.1273l0.1534-0.2181h0.461l-9e-4 0.0789c-8e-4 0.0663-0.0183 0.1025-0.11 0.2273-0.1645 0.224-0.576 0.8115-0.6531 0.9326-0.0374 0.0588-0.1355 0.1971-0.218 0.3074-0.0826 0.1103-0.1501 0.2088-0.1501 0.219 0 0.0192 0.192 0.2922 0.8392 1.1936 0.3399 0.4735 0.3857 0.5456 0.3857 0.6078v0.0705h-0.4984l-0.1459-0.2088c-0.0802-0.1148-0.2096-0.3048-0.2875-0.4222-0.0779-0.1173-0.1796-0.2635-0.226-0.3247-0.0463-0.0612-0.1451-0.197-0.2195-0.3017-0.1675-0.2357-0.1489-0.2405-0.3851 0.0978-0.1069 0.153-0.3326 0.4744-0.5017 0.7142l-0.3075 0.4361-0.2453 0.0052-0.2453 0.0051 5e-4 -0.0701c6e-4 -0.0923 0.16-0.3294 0.8083-1.202 0.2165-0.2914 0.3975-0.5645 0.3973-0.5992-3e-4 -0.0272-0.8101-1.2014-0.9041-1.3108-0.1352-0.1574-0.2092-0.2888-0.2092-0.3711v-0.0849l0.4547 1e-3 0.1364 0.1897zm5.589 0.0413v0.2319h-1.2434v3.1732h-0.5011v-3.1732h-1.2249v-0.4639h2.9694v0.232zm1.0022 1.5865v1.8186h-0.5011v-3.6371h0.5011v1.8185zm1.262-0.2412v1.5773h1.9116v0.4825h-2.4127v-3.6371h0.5011v1.5773zm5.0109-1.3453v0.2319h-2.0972v1.0949h2.0044v0.4824h-2.0044v1.1134h2.1714v0.4825h-2.6724v-3.6371h2.5982v0.232z" clip-rule="evenodd" fill="#2F3574" fill-rule="evenodd" />
</svg>